<mxfile host="app.diagrams.net" modified="2023-03-26T07:31:36.987Z" agent="5.0 (Macintosh; Intel Mac OS X 10_15_7) AppleWebKit/537.36 (KHTML, like Gecko) Chrome/111.0.0.0 Safari/537.36" etag="eDbas-TblNPLXJSNB5bw" version="21.0.8" type="github">
  <diagram name="第 1 页" id="wgCmpDbRalQ_p56tejf1">
    <mxGraphModel dx="2568" dy="2061" grid="1" gridSize="10" guides="1" tooltips="1" connect="1" arrows="1" fold="1" page="1" pageScale="1" pageWidth="827" pageHeight="1169" math="0" shadow="0">
      <root>
        <mxCell id="0" />
        <mxCell id="1" parent="0" />
        <mxCell id="2Q6_s-Yt0mzRYi0WG486-48" value="" style="shape=ext;double=1;rounded=1;whiteSpace=wrap;html=1;" parent="1" vertex="1">
          <mxGeometry x="105" y="70" width="246" height="70" as="geometry" />
        </mxCell>
        <mxCell id="2Q6_s-Yt0mzRYi0WG486-49" value="" style="shape=ext;double=1;rounded=1;whiteSpace=wrap;html=1;" parent="1" vertex="1">
          <mxGeometry x="376" y="70" width="246" height="70" as="geometry" />
        </mxCell>
        <mxCell id="2Q6_s-Yt0mzRYi0WG486-30" value="" style="rounded=1;whiteSpace=wrap;html=1;strokeWidth=2;fillWeight=4;hachureGap=8;hachureAngle=45;fillColor=none;sketch=1;" parent="1" vertex="1">
          <mxGeometry x="-199.25" y="230" width="249.25" height="270" as="geometry" />
        </mxCell>
        <mxCell id="2Q6_s-Yt0mzRYi0WG486-52" style="edgeStyle=orthogonalEdgeStyle;rounded=0;orthogonalLoop=1;jettySize=auto;html=1;exitX=0;exitY=0.5;exitDx=0;exitDy=0;entryX=1;entryY=0.5;entryDx=0;entryDy=0;strokeWidth=4;" parent="1" source="2Q6_s-Yt0mzRYi0WG486-2" target="2Q6_s-Yt0mzRYi0WG486-30" edge="1">
          <mxGeometry relative="1" as="geometry" />
        </mxCell>
        <mxCell id="2Q6_s-Yt0mzRYi0WG486-53" style="edgeStyle=orthogonalEdgeStyle;rounded=0;orthogonalLoop=1;jettySize=auto;html=1;exitX=0.5;exitY=0;exitDx=0;exitDy=0;strokeWidth=4;" parent="1" source="2Q6_s-Yt0mzRYi0WG486-2" target="2Q6_s-Yt0mzRYi0WG486-6" edge="1">
          <mxGeometry relative="1" as="geometry" />
        </mxCell>
        <mxCell id="2Q6_s-Yt0mzRYi0WG486-54" style="edgeStyle=orthogonalEdgeStyle;rounded=0;orthogonalLoop=1;jettySize=auto;html=1;exitX=0.5;exitY=1;exitDx=0;exitDy=0;entryX=0.474;entryY=0;entryDx=0;entryDy=0;entryPerimeter=0;strokeWidth=3;" parent="1" source="2Q6_s-Yt0mzRYi0WG486-2" target="2Q6_s-Yt0mzRYi0WG486-20" edge="1">
          <mxGeometry relative="1" as="geometry" />
        </mxCell>
        <mxCell id="oDmb_GT2MCGHIMay-ZiW-6" style="edgeStyle=orthogonalEdgeStyle;rounded=0;orthogonalLoop=1;jettySize=auto;html=1;exitX=1;exitY=0.5;exitDx=0;exitDy=0;entryX=-0.02;entryY=0.463;entryDx=0;entryDy=0;entryPerimeter=0;strokeWidth=4;" edge="1" parent="1" source="2Q6_s-Yt0mzRYi0WG486-2" target="oDmb_GT2MCGHIMay-ZiW-3">
          <mxGeometry relative="1" as="geometry" />
        </mxCell>
        <mxCell id="2Q6_s-Yt0mzRYi0WG486-2" value="" style="rounded=1;whiteSpace=wrap;html=1;strokeWidth=2;fillWeight=4;hachureGap=8;hachureAngle=45;fillColor=none;sketch=1;" parent="1" vertex="1">
          <mxGeometry x="100" y="250" width="640" height="230" as="geometry" />
        </mxCell>
        <mxCell id="2Q6_s-Yt0mzRYi0WG486-20" value="" style="rounded=1;whiteSpace=wrap;html=1;strokeWidth=2;fillWeight=4;hachureGap=8;hachureAngle=45;fillColor=none;sketch=1;" parent="1" vertex="1">
          <mxGeometry x="105" y="515" width="660" height="225" as="geometry" />
        </mxCell>
        <mxCell id="2Q6_s-Yt0mzRYi0WG486-3" value="" style="rounded=1;whiteSpace=wrap;html=1;strokeWidth=2;fillWeight=4;hachureGap=8;hachureAngle=45;fillColor=none;sketch=1;" parent="1" vertex="1">
          <mxGeometry x="80" y="-30" width="710" height="230" as="geometry" />
        </mxCell>
        <mxCell id="2Q6_s-Yt0mzRYi0WG486-4" value="游戏玩法控制" style="text;html=1;align=center;verticalAlign=middle;resizable=0;points=[];autosize=1;strokeColor=none;fillColor=none;" parent="1" vertex="1">
          <mxGeometry x="665" y="155" width="100" height="30" as="geometry" />
        </mxCell>
        <mxCell id="2Q6_s-Yt0mzRYi0WG486-5" value="房间服务" style="text;html=1;align=center;verticalAlign=middle;resizable=0;points=[];autosize=1;strokeColor=none;fillColor=none;" parent="1" vertex="1">
          <mxGeometry x="670" y="260" width="70" height="30" as="geometry" />
        </mxCell>
        <mxCell id="2Q6_s-Yt0mzRYi0WG486-6" value="social_ktv_game_control" style="rounded=1;whiteSpace=wrap;html=1;strokeWidth=2;fillWeight=4;hachureGap=8;hachureAngle=45;fillColor=none;sketch=1;" parent="1" vertex="1">
          <mxGeometry x="150" y="150" width="430" height="40" as="geometry" />
        </mxCell>
        <mxCell id="2Q6_s-Yt0mzRYi0WG486-7" value="profile" style="rounded=1;whiteSpace=wrap;html=1;strokeWidth=2;fillWeight=4;hachureGap=8;hachureAngle=45;fillColor=none;sketch=1;" parent="1" vertex="1">
          <mxGeometry x="120" y="560" width="110" height="40" as="geometry" />
        </mxCell>
        <mxCell id="2Q6_s-Yt0mzRYi0WG486-8" value="room_audience" style="rounded=1;whiteSpace=wrap;html=1;strokeWidth=2;fillWeight=4;hachureGap=8;hachureAngle=45;fillColor=none;sketch=1;" parent="1" vertex="1">
          <mxGeometry x="260" y="560" width="116" height="40" as="geometry" />
        </mxCell>
        <mxCell id="2Q6_s-Yt0mzRYi0WG486-9" value="scene_kick" style="rounded=1;whiteSpace=wrap;html=1;strokeWidth=2;fillWeight=4;hachureGap=8;hachureAngle=45;fillColor=none;sketch=1;" parent="1" vertex="1">
          <mxGeometry x="414" y="560" width="116" height="40" as="geometry" />
        </mxCell>
        <mxCell id="2Q6_s-Yt0mzRYi0WG486-11" value="room_heartbeat" style="rounded=1;whiteSpace=wrap;html=1;strokeWidth=2;fillWeight=4;hachureGap=8;hachureAngle=45;fillColor=none;sketch=1;" parent="1" vertex="1">
          <mxGeometry x="570" y="560" width="100" height="40" as="geometry" />
        </mxCell>
        <mxCell id="2Q6_s-Yt0mzRYi0WG486-12" value="room_msg" style="rounded=1;whiteSpace=wrap;html=1;strokeWidth=2;fillWeight=4;hachureGap=8;hachureAngle=45;fillColor=none;sketch=1;" parent="1" vertex="1">
          <mxGeometry x="260" y="620" width="100" height="40" as="geometry" />
        </mxCell>
        <mxCell id="2Q6_s-Yt0mzRYi0WG486-13" value="socail_ktv_mike" style="rounded=1;whiteSpace=wrap;html=1;strokeWidth=2;fillWeight=4;hachureGap=8;hachureAngle=45;fillColor=none;sketch=1;" parent="1" vertex="1">
          <mxGeometry x="-160" y="340" width="100" height="40" as="geometry" />
        </mxCell>
        <mxCell id="2Q6_s-Yt0mzRYi0WG486-14" value="room_id" style="rounded=1;whiteSpace=wrap;html=1;strokeWidth=2;fillWeight=4;hachureGap=8;hachureAngle=45;fillColor=none;sketch=1;" parent="1" vertex="1">
          <mxGeometry x="130" y="620" width="100" height="40" as="geometry" />
        </mxCell>
        <mxCell id="2Q6_s-Yt0mzRYi0WG486-15" value="collect_safety_data" style="rounded=1;whiteSpace=wrap;html=1;strokeWidth=2;fillWeight=4;hachureGap=8;hachureAngle=45;fillColor=none;sketch=1;" parent="1" vertex="1">
          <mxGeometry x="380" y="680" width="110" height="40" as="geometry" />
        </mxCell>
        <mxCell id="2Q6_s-Yt0mzRYi0WG486-16" value="timer_task" style="rounded=1;whiteSpace=wrap;html=1;strokeWidth=2;fillWeight=4;hachureGap=8;hachureAngle=45;fillColor=none;sketch=1;" parent="1" vertex="1">
          <mxGeometry x="640" y="620" width="110" height="50" as="geometry" />
        </mxCell>
        <mxCell id="2Q6_s-Yt0mzRYi0WG486-17" value="determine" style="rounded=1;whiteSpace=wrap;html=1;strokeWidth=2;fillWeight=4;hachureGap=8;hachureAngle=45;fillColor=none;sketch=1;" parent="1" vertex="1">
          <mxGeometry x="520" y="620" width="100" height="40" as="geometry" />
        </mxCell>
        <mxCell id="2Q6_s-Yt0mzRYi0WG486-18" value="group_chat_mgr" style="rounded=1;whiteSpace=wrap;html=1;strokeWidth=2;fillWeight=4;hachureGap=8;hachureAngle=45;fillColor=none;sketch=1;" parent="1" vertex="1">
          <mxGeometry x="130" y="680" width="100" height="40" as="geometry" />
        </mxCell>
        <mxCell id="2Q6_s-Yt0mzRYi0WG486-19" value="unified_ktv_invite_code_svr" style="rounded=1;whiteSpace=wrap;html=1;strokeWidth=2;fillWeight=4;hachureGap=8;hachureAngle=45;fillColor=none;sketch=1;" parent="1" vertex="1">
          <mxGeometry x="-150" y="400" width="161.5" height="40" as="geometry" />
        </mxCell>
        <mxCell id="2Q6_s-Yt0mzRYi0WG486-21" value="room_right" style="rounded=1;whiteSpace=wrap;html=1;strokeWidth=2;fillWeight=4;hachureGap=8;hachureAngle=45;fillColor=none;sketch=1;" parent="1" vertex="1">
          <mxGeometry x="400" y="620" width="100" height="40" as="geometry" />
        </mxCell>
        <mxCell id="2Q6_s-Yt0mzRYi0WG486-22" value="kg_feed" style="rounded=1;whiteSpace=wrap;html=1;strokeWidth=2;fillWeight=4;hachureGap=8;hachureAngle=45;fillColor=none;sketch=1;" parent="1" vertex="1">
          <mxGeometry x="530" y="680" width="100" height="40" as="geometry" />
        </mxCell>
        <mxCell id="2Q6_s-Yt0mzRYi0WG486-23" value="social_ktv_feed" style="rounded=1;whiteSpace=wrap;html=1;strokeWidth=2;fillWeight=4;hachureGap=8;hachureAngle=45;fillColor=none;sketch=1;" parent="1" vertex="1">
          <mxGeometry x="-160" y="280" width="100" height="40" as="geometry" />
        </mxCell>
        <mxCell id="2Q6_s-Yt0mzRYi0WG486-24" value="punish_svr" style="rounded=1;whiteSpace=wrap;html=1;strokeWidth=2;fillWeight=4;hachureGap=8;hachureAngle=45;fillColor=none;sketch=1;" parent="1" vertex="1">
          <mxGeometry x="260" y="680" width="100" height="40" as="geometry" />
        </mxCell>
        <mxCell id="2Q6_s-Yt0mzRYi0WG486-25" value="social_ktv_robot" style="rounded=1;whiteSpace=wrap;html=1;strokeWidth=2;fillWeight=4;hachureGap=8;hachureAngle=45;fillColor=none;sketch=1;" parent="1" vertex="1">
          <mxGeometry x="-150" y="450" width="100" height="40" as="geometry" />
        </mxCell>
        <mxCell id="2Q6_s-Yt0mzRYi0WG486-28" value="task_report" style="rounded=1;whiteSpace=wrap;html=1;strokeWidth=2;fillWeight=4;hachureGap=8;hachureAngle=45;fillColor=none;sketch=1;" parent="1" vertex="1">
          <mxGeometry x="650" y="680" width="100" height="40" as="geometry" />
        </mxCell>
        <mxCell id="2Q6_s-Yt0mzRYi0WG486-29" value="基础服务" style="text;html=1;align=center;verticalAlign=middle;resizable=0;points=[];autosize=1;strokeColor=none;fillColor=none;" parent="1" vertex="1">
          <mxGeometry x="665" y="520" width="70" height="30" as="geometry" />
        </mxCell>
        <mxCell id="2Q6_s-Yt0mzRYi0WG486-31" value="专有服务" style="text;html=1;align=center;verticalAlign=middle;resizable=0;points=[];autosize=1;strokeColor=none;fillColor=none;" parent="1" vertex="1">
          <mxGeometry x="-20" y="240" width="70" height="30" as="geometry" />
        </mxCell>
        <mxCell id="2Q6_s-Yt0mzRYi0WG486-32" value="房间创建" style="ellipse;whiteSpace=wrap;html=1;strokeWidth=2;fillWeight=2;hachureGap=8;fillColor=none;fillStyle=dots;sketch=1;" parent="1" vertex="1">
          <mxGeometry x="150" y="280" width="120" height="60" as="geometry" />
        </mxCell>
        <mxCell id="2Q6_s-Yt0mzRYi0WG486-33" value="房间销毁" style="ellipse;whiteSpace=wrap;html=1;strokeWidth=2;fillWeight=2;hachureGap=8;fillColor=none;fillStyle=dots;sketch=1;" parent="1" vertex="1">
          <mxGeometry x="294" y="280" width="120" height="60" as="geometry" />
        </mxCell>
        <mxCell id="2Q6_s-Yt0mzRYi0WG486-34" value="进房/查询房间信息" style="ellipse;whiteSpace=wrap;html=1;strokeWidth=2;fillWeight=2;hachureGap=8;fillColor=none;fillStyle=dots;sketch=1;" parent="1" vertex="1">
          <mxGeometry x="150" y="360" width="120" height="60" as="geometry" />
        </mxCell>
        <mxCell id="2Q6_s-Yt0mzRYi0WG486-35" value="房间feed" style="ellipse;whiteSpace=wrap;html=1;strokeWidth=2;fillWeight=2;hachureGap=8;fillColor=none;fillStyle=dots;sketch=1;" parent="1" vertex="1">
          <mxGeometry x="300" y="360" width="120" height="60" as="geometry" />
        </mxCell>
        <mxCell id="2Q6_s-Yt0mzRYi0WG486-36" value="" style="shape=ext;double=1;rounded=1;whiteSpace=wrap;html=1;" parent="1" vertex="1">
          <mxGeometry x="100" y="-10" width="170" height="70" as="geometry" />
        </mxCell>
        <mxCell id="2Q6_s-Yt0mzRYi0WG486-37" value="" style="shape=ext;double=1;rounded=1;whiteSpace=wrap;html=1;" parent="1" vertex="1">
          <mxGeometry x="284" y="-10" width="246" height="70" as="geometry" />
        </mxCell>
        <mxCell id="2Q6_s-Yt0mzRYi0WG486-38" value="" style="shape=ext;double=1;rounded=1;whiteSpace=wrap;html=1;" parent="1" vertex="1">
          <mxGeometry x="540" y="-10" width="230" height="70" as="geometry" />
        </mxCell>
        <mxCell id="2Q6_s-Yt0mzRYi0WG486-40" value="social_ktv_sing_game_robot_svr" style="text;whiteSpace=wrap;html=1;" parent="1" vertex="1">
          <mxGeometry x="550" y="20" width="215" height="40" as="geometry" />
        </mxCell>
        <mxCell id="2Q6_s-Yt0mzRYi0WG486-41" value="&lt;meta charset=&quot;utf-8&quot;&gt;&lt;span style=&quot;color: rgb(0, 0, 0); font-family: Helvetica; font-size: 12px; font-style: normal; font-variant-ligatures: normal; font-variant-caps: normal; font-weight: 400; letter-spacing: normal; orphans: 2; text-align: center; text-indent: 0px; text-transform: none; widows: 2; word-spacing: 0px; -webkit-text-stroke-width: 0px; background-color: rgb(251, 251, 251); text-decoration-thickness: initial; text-decoration-style: initial; text-decoration-color: initial; float: none; display: inline !important;&quot;&gt;social_ktv_sing_game_svr&lt;/span&gt;" style="text;whiteSpace=wrap;html=1;" parent="1" vertex="1">
          <mxGeometry x="550" y="-10" width="150" height="30" as="geometry" />
        </mxCell>
        <mxCell id="2Q6_s-Yt0mzRYi0WG486-42" value="social_ktv_web_common_game_svr" style="text;whiteSpace=wrap;html=1;" parent="1" vertex="1">
          <mxGeometry x="120" y="85" width="190" height="30" as="geometry" />
        </mxCell>
        <mxCell id="2Q6_s-Yt0mzRYi0WG486-43" value="social_ktv_practice_sing_svr" style="text;whiteSpace=wrap;html=1;" parent="1" vertex="1">
          <mxGeometry x="104" width="190" height="40" as="geometry" />
        </mxCell>
        <mxCell id="2Q6_s-Yt0mzRYi0WG486-44" value="social_ktv_order_sing_game_ktv_svr" style="text;whiteSpace=wrap;html=1;" parent="1" vertex="1">
          <mxGeometry x="390" y="80" width="230" height="40" as="geometry" />
        </mxCell>
        <mxCell id="2Q6_s-Yt0mzRYi0WG486-46" value="social_ktv_practice_sing_robot_svr" style="text;whiteSpace=wrap;html=1;" parent="1" vertex="1">
          <mxGeometry x="105" y="20" width="190" height="40" as="geometry" />
        </mxCell>
        <mxCell id="2Q6_s-Yt0mzRYi0WG486-47" value="social_ktv_niubility_practice_sing_ktv_svr" style="text;whiteSpace=wrap;html=1;" parent="1" vertex="1">
          <mxGeometry x="289" y="-10" width="250" height="40" as="geometry" />
        </mxCell>
        <mxCell id="2Q6_s-Yt0mzRYi0WG486-50" value="social_ktv_niubility_practice_sing_ktv_robot_svr" style="text;whiteSpace=wrap;html=1;" parent="1" vertex="1">
          <mxGeometry x="295" y="20" width="250" height="40" as="geometry" />
        </mxCell>
        <mxCell id="2Q6_s-Yt0mzRYi0WG486-51" value="social_ktv_order_sing_game_ktv_robot_svr" style="text;whiteSpace=wrap;html=1;" parent="1" vertex="1">
          <mxGeometry x="390" y="100" width="230" height="40" as="geometry" />
        </mxCell>
        <mxCell id="oDmb_GT2MCGHIMay-ZiW-1" value="" style="rounded=1;whiteSpace=wrap;html=1;strokeWidth=2;fillWeight=4;hachureGap=8;hachureAngle=45;fillColor=none;sketch=1;" vertex="1" parent="1">
          <mxGeometry x="1300" y="-25" width="310" height="125" as="geometry" />
        </mxCell>
        <mxCell id="oDmb_GT2MCGHIMay-ZiW-2" value="成员服务" style="text;html=1;align=center;verticalAlign=middle;resizable=0;points=[];autosize=1;strokeColor=none;fillColor=none;" vertex="1" parent="1">
          <mxGeometry x="1430" y="-70" width="70" height="30" as="geometry" />
        </mxCell>
        <mxCell id="oDmb_GT2MCGHIMay-ZiW-3" value="" style="rounded=1;whiteSpace=wrap;html=1;strokeWidth=2;fillWeight=4;hachureGap=8;hachureAngle=45;fillColor=none;sketch=1;" vertex="1" parent="1">
          <mxGeometry x="900" y="244" width="200" height="260" as="geometry" />
        </mxCell>
        <mxCell id="oDmb_GT2MCGHIMay-ZiW-4" value="kafka" style="shape=cylinder3;whiteSpace=wrap;html=1;boundedLbl=1;backgroundOutline=1;size=15;" vertex="1" parent="1">
          <mxGeometry x="970" y="280" width="60" height="80" as="geometry" />
        </mxCell>
        <mxCell id="oDmb_GT2MCGHIMay-ZiW-5" value="ckv+" style="shape=cylinder3;whiteSpace=wrap;html=1;boundedLbl=1;backgroundOutline=1;size=15;" vertex="1" parent="1">
          <mxGeometry x="970" y="390" width="60" height="80" as="geometry" />
        </mxCell>
      </root>
    </mxGraphModel>
  </diagram>
</mxfile>
